<svg width="0" height="0" class="hidden">
  <symbol fill="none" xmlns="http://www.w3.org/2000/svg" viewBox="0 0 51 51" id="Medium Alert">
    <path d="M51 25.5C51 11.429 39.571 0 25.5 0S0 11.429 0 25.5 11.429 51 25.5 51 51 39.571 51 25.5zM22.725 14.005a2.791 2.791 0 012.775-2.774 2.791 2.791 0 012.775 2.774v11.033a2.791 2.791 0 01-2.775 2.774 2.791 2.791 0 01-2.775-2.774V14.005zm.199 20.942A2.58 2.58 0 0125.5 32.37a2.58 2.58 0 012.576 2.577 2.58 2.58 0 01-2.576 2.576 2.58 2.58 0 01-2.576-2.576z" fill="#EACC6A"></path>
  </symbol>
  <symbol fill="none" xmlns="http://www.w3.org/2000/svg" viewBox="0 0 60 54" id="Motivation">
    <path d="M39.635 20.058h-.256a3.07 3.07 0 00-1.47.367c-.384-1.345-1.662-2.324-3.133-2.324h-.255c-.576 0-1.087.123-1.535.367-.383-1.345-1.662-2.324-3.132-2.324h-.256c-1.47 0-2.749.979-3.132 2.324a3.075 3.075 0 00-1.47-.367h-.256c-1.79 0-3.26 1.407-3.26 3.119v8.01h-1.47c-1.855 0-3.389 1.469-3.389 3.242v7.033c0 2.751 2.11 5.075 4.859 5.564v2.324H20.2c-.511 0-.959.428-.959.917v4.342c0 .49.448.918.959.918h19.178c.512 0 .959-.428.959-.918V48.31c0-.489-.447-.917-.959-.917H38.1V45.07c2.75-.489 4.859-2.813 4.859-5.564V23.177c-.064-1.712-1.534-3.119-3.324-3.119zm-.256 1.835h.256c.767 0 1.342.55 1.342 1.284v8.317c0 .733-.575 1.284-1.342 1.284h-.256c-.767 0-1.342-.55-1.342-1.284v-8.317c0-.734.575-1.284 1.342-1.284zm-6.265-.673c0-.734.576-1.284 1.343-1.284h.255c.767 0 1.343.55 1.343 1.284v10.335c0 .734-.575 1.284-1.343 1.284h-.255a1.12 1.12 0 01-.64-.183v-.184a3.07 3.07 0 00-.703-1.957V21.22zm-4.858-1.957c0-.734.575-1.284 1.342-1.284h.256c.767 0 1.342.55 1.342 1.284v10.03c-.255-.062-.511-.062-.703-.062h-2.237v-9.968zm-4.923 1.957c0-.734.576-1.284 1.343-1.284h.256c.767 0 1.342.55 1.342 1.284v8.01h-2.94v-8.01zm15.023 28.069v2.507h-17.26V49.29h17.26zm2.621-9.723c0 2.079-1.79 3.791-3.963 3.791-.512 0-.96.428-.96.918v3.18h-12.72v-3.302c0-.245-.128-.49-.256-.673-.192-.184-.384-.245-.703-.245-2.174 0-3.9-1.712-3.9-3.73v-7.033c0-.795.64-1.407 1.47-1.407H30.43c.256 0 .512.062.704.184.447.245.703.673.703 1.223 0 .245-.064.49-.192.734-.256.428-.703.672-1.279.672h-8.182c-.512 0-.96.429-.96.918 0 .489.448.917.96.917h.192c2.173 0 3.9 1.712 3.9 3.73 0 .245.127.49.255.673.191.184.383.245.703.245.511 0 .959-.428.959-.918a5.254 5.254 0 00-1.534-3.73h3.771c1.151 0 2.11-.55 2.75-1.345.383.183.83.244 1.278.244h.255a3.37 3.37 0 002.302-.917c.575.55 1.406.917 2.301.917h.256c.511 0 .959-.122 1.342-.305v5.259h.064zM17.452 16.633a.86.86 0 000-1.284l-7.416-7.032a.956.956 0 00-1.342 0 .86.86 0 000 1.284l7.351 7.032c.192.184.448.245.704.245.255 0 .511-.061.703-.245zm33.306-8.316a.956.956 0 00-1.342 0L42 15.349a.86.86 0 000 1.284c.192.184.448.245.703.245.256 0 .512-.061.703-.245l7.352-7.032a.86.86 0 000-1.284zM11.379 27.519H.959c-.512 0-.959.428-.959.917 0 .49.447.917.959.917h10.42c.511 0 .959-.428.959-.917 0-.49-.448-.917-.959-.917zm47.114 0h-10.42c-.511 0-.959.428-.959.917 0 .49.448.917.96.917h10.42c.51 0 .958-.428.958-.917 0-.49-.447-.917-.959-.917zM29.726 11.803c.511 0 .959-.429.959-.918V.917c0-.489-.448-.917-.959-.917-.511 0-.959.428-.959.917v9.968c0 .49.448.918.959.918z" fill="#787878"></path>
  </symbol>
  <symbol fill="none" xmlns="http://www.w3.org/2000/svg" viewBox="0 0 41 40" id="Neutral">
    <path d="M30.12.433H10.88C4.873.433 0 5.07 0 10.79v18.314c0 5.721 4.872 10.359 10.88 10.359h19.24c6.008 0 10.88-4.638 10.88-10.358V10.79C41 5.071 36.128.433 30.12.433z" fill="#C9C9C9"></path>
    <path d="M12.481 18.796c1.27 0 2.298-.985 2.298-2.2 0-1.213-1.029-2.198-2.298-2.198-1.27 0-2.298.985-2.298 2.199s1.029 2.198 2.298 2.198zm16.086 0c1.27 0 2.299-.985 2.299-2.2 0-1.213-1.03-2.198-2.299-2.198s-2.298.985-2.298 2.199 1.03 2.198 2.298 2.198zm4.987 6.631H7.527c-.146 0-.286-.112-.389-.311-.103-.2-.16-.47-.16-.75 0-.282.057-.552.16-.751.103-.2.243-.311.389-.311h26.027c.146 0 .286.112.389.31.103.2.16.47.16.751 0 .282-.057.552-.16.751-.103.2-.243.31-.389.31z" fill="#333"></path>
  </symbol>
  <symbol fill="none" xmlns="http://www.w3.org/2000/svg" viewBox="0 0 36 40" id="Reports">
    <path d="M0 22.633v15.882c0 .586.448 1.06 1 1.06h5c.552 0 1-.474 1-1.06V22.633c0-.585-.448-1.059-1-1.059H1c-.552 0-1 .473-1 1.059zm2 1.059h3v13.765H2V23.692zm8.5-7.412c-.552 0-1 .473-1 1.059v21.176c0 .586.448 1.06 1 1.06h5c.552 0 1-.474 1-1.06V17.34c0-.586-.448-1.059-1-1.059h-5zm4 21.177h-3v-19.06h3v19.06zM20 21.574c-.553 0-1 .473-1 1.059v15.882c0 .586.447 1.06 1 1.06h5c.553 0 1-.474 1-1.06V22.633c0-.585-.447-1.059-1-1.059h-5zm4 15.883h-3V23.692h3v13.765zm5-25.412v26.47c0 .586.447 1.06 1 1.06h5c.553 0 1-.474 1-1.06v-26.47c0-.586-.447-1.059-1-1.059h-5c-.553 0-1 .473-1 1.059zm2 1.059h3v24.353h-3V13.104z" fill="#787878"></path>
    <path d="M33.03.162c-.47-.312-1.086-.16-1.378.335l-9.38 15.892-8.617-7.923c-.034-.03-.076-.041-.112-.067a.96.96 0 00-.174-.105.967.967 0 00-.18-.051.942.942 0 00-.189-.024.951.951 0 00-.189.024c-.062.013-.12.025-.18.051-.063.026-.118.065-.175.105-.037.026-.079.036-.112.067l-9.5 8.735a1.102 1.102 0 00-.099 1.493.972.972 0 00.755.366.966.966 0 00.655-.26L13 10.667l8.845 8.133c.021.02.05.027.072.046.02.015.031.038.053.053.041.026.085.04.128.06.03.015.06.032.091.042.102.036.206.06.311.06h.002a.953.953 0 00.365-.083c.021-.009.042-.015.063-.025a.99.99 0 00.301-.236c.007-.01.02-.012.025-.022.011-.012.013-.028.022-.041.022-.03.05-.057.07-.091l10-16.941c.294-.497.151-1.151-.317-1.46z" fill="#787878"></path>
  </symbol>
  <symbol fill="none" xmlns="http://www.w3.org/2000/svg" viewBox="0 0 41 40" id="Repulsive">
    <path d="M30.172.824h-19.44C4.805.824 0 5.42 0 11.09v18.597c0 5.67 4.805 10.266 10.732 10.266h19.44c5.928 0 10.733-4.596 10.733-10.266V11.09C40.905 5.42 36.1.824 30.172.824z" fill="#AFE386"></path>
    <path d="M16.123 19.479a.964.964 0 01-.666-.264l-5-4.782a.881.881 0 01-.245-.63.885.885 0 01.276-.616.966.966 0 01.645-.264.97.97 0 01.658.233l4.988 4.782c.132.127.22.287.257.462a.868.868 0 01-.054.52.913.913 0 01-.346.405.976.976 0 01-.523.154h.01z" fill="#333"></path>
    <path d="M11.125 19.479a.976.976 0 01-.524-.153.914.914 0 01-.347-.404.867.867 0 01-.055-.521.892.892 0 01.257-.463l5.002-4.781a.964.964 0 01.666-.264c.25 0 .49.096.666.265.177.17.276.399.276.638s-.1.468-.277.637l-4.999 4.782a.964.964 0 01-.665.264zm18.204 0a.974.974 0 01-.668-.264l-5-4.782a.881.881 0 01-.244-.63.885.885 0 01.277-.616.965.965 0 01.645-.264.97.97 0 01.657.233l4.999 4.782c.131.127.22.287.256.462a.867.867 0 01-.053.52.913.913 0 01-.346.405.976.976 0 01-.523.154z" fill="#333"></path>
    <path d="M24.33 19.479a.975.975 0 01-.523-.153.914.914 0 01-.347-.404.868.868 0 01-.055-.521.891.891 0 01.257-.463l4.999-4.781a.97.97 0 01.657-.235c.243.006.474.1.645.265.172.164.27.385.277.617a.881.881 0 01-.245.629l-4.999 4.782a.971.971 0 01-.665.264zm4.383 8.356c-.81 0-1.727-.359-2.77-1.076-.885-.613-1.603-.845-1.916-.616-.128.116-.24.248-.333.392a3.66 3.66 0 01-.648.726c-1.056.854-2.508.62-3.517.116-.37-.191-.726-.404-1.068-.637a6.601 6.601 0 00-1.105-.632 2.926 2.926 0 00-1.421-.172c-.482.06-.939.24-1.326.521-.101.075-.207.168-.32.264a3.996 3.996 0 01-1.184.772c-1.48.561-2.713-.298-3.724-.986-.56-.387-1.088-.75-1.598-.878a1.795 1.795 0 00-1.168.173 1.676 1.676 0 00-.778.85.92.92 0 01-.472.496.984.984 0 01-.699.049.936.936 0 01-.54-.426.869.869 0 01-.087-.666 3.472 3.472 0 011.664-1.892 3.727 3.727 0 012.56-.33c.85.213 1.577.708 2.22 1.16.957.66 1.458.945 1.926.772.231-.116.442-.265.624-.443.131-.109.264-.224.415-.337a4.801 4.801 0 012.238-.89c.814-.103 1.643 0 2.403.3.507.22.989.49 1.438.806.28.192.573.367.875.527.478.236 1.122.351 1.425.106.12-.116.228-.244.318-.382.201-.301.451-.57.74-.795.74-.536 2.06-.869 4.165.592.91.63 1.62.866 1.944.648.125-.104.236-.222.333-.351.088-.109.177-.215.27-.314.847-.903 2.22-1.283 3.609-.99 1.388.292 2.466 1.193 2.833 2.358a.864.864 0 01-.07.687.911.911 0 01-.232.272.957.957 0 01-.69.202.973.973 0 01-.352-.102.934.934 0 01-.285-.223.89.89 0 01-.173-.31c-.205-.643-.878-1-1.438-1.118-.56-.118-1.33-.066-1.798.434a2.85 2.85 0 00-.195.236 3.486 3.486 0 01-.725.708 2.4 2.4 0 01-1.368.399z" fill="#333"></path>
  </symbol>
  <symbol fill="none" xmlns="http://www.w3.org/2000/svg" viewBox="0 0 30 29" id="Right">
    <path fill-rule="evenodd" clip-rule="evenodd" d="M10.734 26.776l-2.531-2.531 10.37-10.37L8.203 3.503 10.734.972l12.903 12.902-12.903 12.902z" fill="#000" opacity=".2"></path>
  </symbol>
  <symbol fill="none" xmlns="http://www.w3.org/2000/svg" viewBox="0 0 36 33" id="Rooms">
    <path d="M29.045 14.844c1.545 0 2.735-1.194 2.735-2.578s-1.19-2.579-2.735-2.579c-1.546 0-2.737 1.195-2.737 2.579l2.737 2.578zm0 0c-1.546 0-2.737-1.195-2.737-2.578l2.737 2.578zm-1.561 3.086a2.16 2.16 0 01.32-.317h2.48c.03.022.072.056.126.108.176.169.4.444.662.827.52.76 1.106 1.832 1.659 3.02a31.219 31.219 0 011.423 3.61c.341 1.075.54 1.98.572 2.6H29.92c-.587-2.38-1.647-5.354-2.958-8.212-.08-.176-.165-.358-.253-.546a8.84 8.84 0 01.775-1.09zm2.755-.347l.003.002c-.002 0-.003-.002-.003-.002zm-2.394.003a.035.035 0 01.008-.004l-.008.004zm-18.513-5.32c0 1.384-1.19 2.578-2.735 2.578-1.547 0-2.738-1.195-2.738-2.578 0-1.384 1.191-2.579 2.738-2.579 1.545 0 2.735 1.195 2.735 2.58zm-3.977 5.347h2.481c.07.052.176.15.316.311.225.26.484.625.765 1.076-1.386 2.93-2.564 6.2-3.2 8.777H.905c.032-.619.23-1.523.572-2.596a31.174 31.174 0 011.426-3.611c.554-1.189 1.142-2.26 1.662-3.021.262-.384.488-.659.664-.827.055-.053.097-.087.126-.109zm2.433-.031l.007.004a.041.041 0 01-.007-.004zm-2.39.003l.003-.001-.003.002zM22.965 5.789c0 2.657-2.272 4.888-5.15 4.888A5.254 5.254 0 0114.16 9.23c-.973-.93-1.497-2.149-1.497-3.44 0-2.66 2.274-4.89 5.153-4.89 2.877 0 5.15 2.23 5.15 4.889zm-2.99 8.119h-4.302c.004 0 .004 0-.002.002-.03.009-.195.061-.512.35-.344.314-.748.797-1.194 1.438-.887 1.276-1.854 3.052-2.753 4.998a51.033 51.033 0 00-2.3 5.894c-.597 1.896-.934 3.495-.934 4.505 0 .262.023.428.048.53H27.6c.025-.104.05-.275.05-.534l-7.676-17.184zm0 0c-.005 0-.005 0 .002.002m-.002-.002l.002.002m0 0c.03.01.194.063.508.35m-.508-.35l.508.35m0 0c.343.313.746.796 1.19 1.437m-1.19-1.438l1.19 1.438m0 0c.886 1.275 1.851 3.051 2.748 4.997m-2.748-4.997l2.748 4.997m0 0a51.089 51.089 0 012.296 5.892m-2.296-5.892l2.296 5.892m0 0c.595 1.896.932 3.495.932 4.505l-.932-4.505z" stroke="#787878" stroke-width="1.8"></path>
  </symbol>
  <symbol fill="none" xmlns="http://www.w3.org/2000/svg" viewBox="0 0 41 40" id="Sadness">
    <path d="M30.172.716h-19.44C4.805.716 0 5.313 0 10.983v18.596c0 5.67 4.805 10.267 10.732 10.267h19.44c5.928 0 10.733-4.597 10.733-10.267V10.983C40.905 5.313 36.1.716 30.172.716z" fill="#83D0FF"></path>
    <path d="M14.642 16.683c.292-1.181-.473-2.366-1.709-2.645-1.235-.279-2.473.453-2.765 1.635-.291 1.182.474 2.366 1.71 2.645 1.235.279 2.472-.453 2.764-1.635zm16.087.001c.291-1.181-.474-2.366-1.71-2.645-1.234-.278-2.472.454-2.764 1.635-.292 1.182.474 2.366 1.709 2.645 1.235.28 2.473-.453 2.765-1.635zm-18.317 6.901c5.055-1.663 10.93-1.562 15.972.104a18.21 18.21 0 015.11 2.595c.478.351 1.356 1.094 1.916.403.323-.394.052-1.052-.167-1.432-.538-.92-1.48-1.569-2.353-2.182a17.482 17.482 0 00-3.7-1.958 23.16 23.16 0 00-7-1.484c-.9-.059-1.806-.073-2.713-.047h-.079c-1.285.04-2.566.167-3.832.38a22.328 22.328 0 00-6.905 2.345c-.232.127-.464.255-.693.389-.765.446-1.502.896-1.941 1.677-.176.278-.231.61-.155.927.16.526.74.708 1.267.611.812-.165 1.48-.613 2.18-.993a20.115 20.115 0 012.328-1.059c.257-.102.51-.189.765-.276z" fill="#333"></path>
  </symbol>
  <symbol fill="none" xmlns="http://www.w3.org/2000/svg" viewBox="0 0 48 47" id="Stars">
    <g filter="url(#filter0_d)">
      <path d="M40.493 12.619H29.75l-3.322-10.56C26.043.832 24.936 0 23.686 0s-2.357.832-2.744 2.06l-3.317 10.56H6.885c-1.25 0-2.357.832-2.744 2.061-.386 1.228.038 2.574 1.049 3.334l8.69 6.524-3.318 10.558c-.386 1.23.037 2.576 1.048 3.335a2.812 2.812 0 003.391-.001l8.69-6.526 8.692 6.527c.506.379 1.1.569 1.695.569s1.19-.19 1.695-.57c1.012-.76 1.434-2.105 1.048-3.334l-3.322-10.56 8.623-6.478a3.007 3.007 0 001.252-2.457c0-1.647-1.288-2.982-2.88-2.982z" fill="#EACC6A"></path>
    </g>
    <defs>
      <filter id="filter0_d" x="0" y="0" width="47.374" height="47" filterUnits="userSpaceOnUse" color-interpolation-filters="sRGB">
        <feFlood flood-opacity="0" result="BackgroundImageFix"></feFlood>
        <feColorMatrix in="SourceAlpha" values="0 0 0 0 0 0 0 0 0 0 0 0 0 0 0 0 0 0 127 0"></feColorMatrix>
        <feOffset dy="4"></feOffset>
        <feGaussianBlur stdDeviation="2"></feGaussianBlur>
        <feColorMatrix values="0 0 0 0 0 0 0 0 0 0 0 0 0 0 0 0 0 0 0.25 0"></feColorMatrix>
        <feBlend in2="BackgroundImageFix" result="effect1_dropShadow"></feBlend>
        <feBlend in="SourceGraphic" in2="effect1_dropShadow" result="shape"></feBlend>
      </filter>
    </defs>
  </symbol>
  <symbol fill="none" xmlns="http://www.w3.org/2000/svg" viewBox="0 0 40 42" id="Settings">
    <path d="M21.86 12.008a8.082 8.082 0 00-3.343-.306 8.206 8.206 0 00-3.195 1.081 8.687 8.687 0 00-2.555 2.302 9.248 9.248 0 00-1.52 3.167 9.551 9.551 0 00-.25 3.542 9.41 9.41 0 001.058 3.37 8.907 8.907 0 002.203 2.68 8.355 8.355 0 003.008 1.572c.75.212 1.521.321 2.297.324 2.067.01 4.067-.775 5.628-2.21 1.56-1.435 2.576-3.422 2.857-5.59a9.451 9.451 0 00-1.33-6.198c-1.139-1.827-2.865-3.153-4.858-3.733v-.001zm2.007 13.262a6.052 6.052 0 01-2.777 1.684c-1.05.29-2.155.28-3.2-.029a5.918 5.918 0 01-2.653-1.631 6.43 6.43 0 01-1.54-2.809 6.86 6.86 0 01-.027-3.388 6.594 6.594 0 011.589-2.94 6.053 6.053 0 011.979-1.403 5.772 5.772 0 012.336-.488 6.19 6.19 0 011.662.232 5.923 5.923 0 012.652 1.632 6.436 6.436 0 011.541 2.81 6.864 6.864 0 01.027 3.388 6.598 6.598 0 01-1.59 2.942z" fill="#787878"></path>
    <path d="M36.663 16.022l-1.851-.785a1.478 1.478 0 01-.492-.341 1.58 1.58 0 01-.328-.517A1.652 1.652 0 0134 13.16l.784-1.934a4.357 4.357 0 00.25-2.42 4.206 4.206 0 00-1.084-2.147l-1.108-1.175a3.836 3.836 0 00-2.028-1.15 3.698 3.698 0 00-2.287.262l-1.827.83a1.413 1.413 0 01-1.15.006 1.482 1.482 0 01-.487-.346 1.582 1.582 0 01-.322-.52l-.742-1.963A4.098 4.098 0 0022.555.707a3.752 3.752 0 00-2.2-.707H18.77a3.753 3.753 0 00-2.2.71 4.1 4.1 0 00-1.44 1.897l-.742 1.963a1.583 1.583 0 01-.322.52 1.483 1.483 0 01-.487.347 1.414 1.414 0 01-1.152-.007L10.6 4.595a3.698 3.698 0 00-2.285-.262A3.835 3.835 0 006.288 5.48L5.18 6.654A4.206 4.206 0 004.093 8.8a4.35 4.35 0 00.246 2.422l.783 1.934a1.653 1.653 0 01.007 1.219c-.075.194-.187.37-.327.516a1.48 1.48 0 01-.49.342l-1.854.786a3.948 3.948 0 00-1.791 1.526c-.439.688-.67 1.5-.667 2.33v1.675c-.002.83.231 1.642.67 2.33a3.955 3.955 0 001.793 1.525l1.852.785a1.509 1.509 0 01.819.857 1.65 1.65 0 01-.007 1.22L4.343 30.2a4.35 4.35 0 00-.25 2.42 4.207 4.207 0 001.083 2.148l1.108 1.173a3.829 3.829 0 002.028 1.15c.77.16 1.567.069 2.287-.26l1.827-.829a1.411 1.411 0 011.15-.007c.183.08.349.198.488.347.139.149.248.326.322.52l.741 1.96c.29.772.791 1.433 1.44 1.899a3.76 3.76 0 002.2.71h1.584a3.753 3.753 0 002.199-.71 4.099 4.099 0 001.44-1.898l.742-1.96a1.58 1.58 0 01.322-.521 1.48 1.48 0 01.488-.348 1.41 1.41 0 011.151.008l1.827.83c.72.329 1.516.42 2.285.263a3.842 3.842 0 002.029-1.145l1.108-1.173c.56-.584.94-1.332 1.09-2.149a4.35 4.35 0 00-.246-2.425l-.783-1.934a1.65 1.65 0 01-.007-1.219c.076-.193.187-.368.328-.515.14-.148.308-.263.491-.341l1.851-.785a3.947 3.947 0 001.794-1.525 4.3 4.3 0 00.669-2.33V19.88a4.3 4.3 0 00-.67-2.332 3.947 3.947 0 00-1.796-1.525zm.025 5.53c.002.314-.087.62-.253.881-.166.26-.403.461-.678.577l-1.854.787a3.904 3.904 0 00-1.298.9 4.17 4.17 0 00-.866 1.365 4.36 4.36 0 00.02 3.221l.782 1.935c.118.288.151.608.095.917a1.599 1.599 0 01-.409.814l-1.108 1.174c-.21.223-.477.374-.769.433-.291.06-.593.025-.865-.1l-1.827-.828a3.73 3.73 0 00-3.043-.022 3.912 3.912 0 00-1.288.917c-.368.393-.657.86-.851 1.374l-.743 1.964c-.11.292-.3.542-.545.718-.246.176-.536.27-.833.269h-1.583a1.418 1.418 0 01-.832-.27 1.55 1.55 0 01-.545-.718l-.743-1.963a4.17 4.17 0 00-.85-1.376 3.904 3.904 0 00-1.288-.918 3.72 3.72 0 00-3.044.025l-1.827.828a1.401 1.401 0 01-.867.102c-.292-.06-.56-.21-.77-.434l-1.108-1.173a1.599 1.599 0 01-.409-.814 1.653 1.653 0 01.094-.917l.783-1.934a4.357 4.357 0 00.02-3.222A4.17 4.17 0 006.52 24.7a3.904 3.904 0 00-1.298-.9l-1.857-.79a1.496 1.496 0 01-.678-.577 1.629 1.629 0 01-.254-.881v-1.677c0-.314.088-.621.254-.881s.402-.462.678-.579l1.855-.785a3.905 3.905 0 001.298-.9 4.17 4.17 0 00.866-1.365 4.36 4.36 0 00-.02-3.222L6.58 10.21a1.649 1.649 0 01-.094-.917c.056-.31.199-.593.41-.815l1.108-1.173c.21-.223.477-.375.769-.434.291-.06.593-.025.865.1l1.827.83a3.73 3.73 0 003.043.02 3.92 3.92 0 001.288-.917c.368-.394.657-.861.851-1.375l.743-1.961c.11-.292.3-.543.545-.719a1.42 1.42 0 01.833-.268h1.583c.296-.001.587.092.832.268.246.176.436.427.545.719l.743 1.961c.194.514.484.981.85 1.375.368.393.806.705 1.29.917a3.73 3.73 0 003.042-.02l1.827-.83c.272-.125.574-.16.866-.1.291.06.56.21.768.434l1.109 1.173a1.6 1.6 0 01.409.813 1.66 1.66 0 01-.094.917l-.783 1.934a4.357 4.357 0 00-.02 3.222c.2.511.494.975.866 1.364.372.389.813.695 1.299.9l1.852.786c.276.116.512.317.678.578.166.26.255.567.254.882l.003 1.678z" fill="#787878"></path>
  </symbol>
  <symbol fill="none" xmlns="http://www.w3.org/2000/svg" viewBox="0 0 44 22" id="Students">
    <path d="M29.97 16.367l5.321.606a.208.208 0 00.207.085 2.24 2.24 0 01.537 0 .224.224 0 00.192-.083l5.334-.608c.146-.017.269-.11.269-.269V8.982c0-.133-.123-.285-.269-.268l-1.1.125c-.195.022-1.232-.963-1.576-1.136-.4-.2-.834-.29-1.278-.332 1.219-.654 2.012-1.894 2.09-3.434.113-2.216-1.88-3.828-3.931-3.932-2.218-.113-3.83 1.88-3.933 3.932-.078 1.55.874 2.802 2.153 3.452a4.938 4.938 0 00-1.277.288c-.204.077-1.527 1.175-1.493 1.178l-1.247-.142c-.145-.016-.268.135-.268.269v7.116c0 .16.123.252.268.269zm10.786-6.484v5.498l-4.454.509v-5.5l3.868-.44.586-.067zm-7.85-5.945c-.087-1.616 1.372-2.78 2.86-2.86 3.683.2 3.683 5.52 0 5.72-1.615.087-2.78-1.372-2.86-2.86zm1.39 4.483c1.55 0 3.324-.267 4.657.59l-3.186.363c-.99.113-2.175-.17-3.233-.347.512-.371 1.063-.564 1.763-.606zm-3.52 1.462l.585.067h.002l3.868.44v5.5l-4.456-.508v-5.5zm-14.572 6.484l5.321.606a.21.21 0 00.207.085 2.24 2.24 0 01.536 0 .224.224 0 00.192-.083l5.335-.608c.145-.017.268-.11.268-.269V8.982c0-.133-.123-.285-.268-.268l-1.098.125c-.196.022-1.234-.963-1.577-1.135-.4-.201-.835-.291-1.278-.333 1.22-.653 2.013-1.893 2.09-3.434C26.046 1.72 24.05.11 22 .005c-2.217-.113-3.829 1.88-3.933 3.932-.078 1.55.874 2.802 2.154 3.452a4.955 4.955 0 00-1.277.288c-.203.077-1.527 1.175-1.492 1.178l-1.247-.142c-.145-.016-.268.135-.268.269v7.116c0 .16.123.252.268.269zM26.99 9.883v5.498l-4.453.509v-5.5l3.869-.44.584-.067zm-7.85-5.945c-.088-1.616 1.372-2.78 2.86-2.86 3.685.2 3.685 5.52 0 5.72-1.616.087-2.78-1.372-2.86-2.86zm1.39 4.483c1.55 0 3.323-.266 4.657.59L22 9.374c-.99.113-2.174-.17-3.233-.347.513-.37 1.064-.564 1.763-.606zm-3.52 1.462c1.484.17 2.969.338 4.453.507v5.5l-4.454-.509V9.883zM2.439 16.367l5.321.606a.21.21 0 00.207.085 2.24 2.24 0 01.536 0 .227.227 0 00.193-.083l5.335-.608c.145-.017.268-.11.268-.269V8.982c0-.133-.123-.285-.268-.268l-1.099.125c-.196.022-1.233-.963-1.576-1.135-.401-.201-.835-.291-1.278-.333 1.219-.654 2.012-1.894 2.09-3.434C12.28 1.72 10.286.11 8.235.005c-2.217-.113-3.83 1.88-3.933 3.932-.079 1.55.873 2.802 2.153 3.452a4.955 4.955 0 00-1.277.288c-.203.077-1.527 1.175-1.493 1.178L2.44 8.713c-.146-.016-.269.135-.269.269v7.116c0 .16.123.252.269.269zm10.786-6.484v5.498l-4.455.509v-5.5l3.87-.44.585-.067zm-7.85-5.945c-.088-1.616 1.37-2.78 2.86-2.86 3.684.2 3.684 5.52 0 5.72-1.616.087-2.78-1.372-2.86-2.86zm1.39 4.483c1.55 0 3.323-.266 4.657.59l-3.187.363c-.99.113-2.174-.17-3.233-.347.512-.37 1.063-.564 1.763-.606zM3.244 9.883c1.484.17 2.969.338 4.453.507v5.5l-4.453-.509V9.883zm40.488 8.091H.269a.247.247 0 00-.172.066l-.017.013a.171.171 0 00-.014.02.243.243 0 00-.066.17v2.586a.27.27 0 00.268.268h43.463A.271.271 0 0044 20.83v-2.587a.27.27 0 00-.268-.268zm-.805 2.05H1.073v-.977h41.854v.977z" fill="#787878"></path>
  </symbol>
  <symbol fill="none" xmlns="http://www.w3.org/2000/svg" viewBox="0 0 39 39" id="Subjects">
    <path d="M2.536 38.307h3.071c.842 0 1.536-.663 1.536-1.469V2.576c0-.806-.694-1.47-1.536-1.47H2.536C1.694 1.107 1 1.77 1 2.577v34.262c0 .806.694 1.47 1.536 1.47zM1.99 2.576c0-.285.247-.522.545-.522h3.071c.297 0 .545.237.545.522v2.89h-4.21v-2.89h.049zm0 3.838H6.2V8.5H1.99V6.414zm0 3.033H6.2v20.567H1.99V9.447zm0 21.515H6.2v2.085H1.99v-2.085zm0 2.985H6.2v2.844a.538.538 0 01-.544.521H2.585a.538.538 0 01-.545-.521v-2.843h-.05zm32.35-10.615h-4.904c-.297 0-.496.19-.496.474s.199.474.496.474h4.904c.297 0 .496-.19.496-.474s-.198-.474-.496-.474z" fill="#787878" stroke="#787878" stroke-width=".4"></path>
    <path d="M27.157 38.307h9.512c.842 0 1.535-.663 1.535-1.469V2.576c0-.806-.693-1.47-1.535-1.47h-9.512c-.842 0-1.536.664-1.536 1.47v34.262c-.05.806.644 1.47 1.536 1.47zm-.595-35.731c0-.285.248-.522.545-.522h9.512c.297 0 .545.237.545.522v2.89H26.562v-2.89zm0 3.838h10.651V8.5h-10.65V6.414zm0 3.033h10.651v20.567h-10.65V9.447zm0 21.515h10.651v2.085h-10.65v-2.085zm0 2.985h10.651v2.844a.538.538 0 01-.544.521h-9.512a.538.538 0 01-.545-.521v-2.843h-.05zm-17.14 4.36h3.071c.843 0 1.536-.663 1.536-1.469V7.268l4.41 29.76c.049.379.247.758.594.995.247.19.594.284.94.284h.199l3.072-.426c.396-.048.792-.237 1.04-.569.248-.332.347-.71.297-1.09l-5.053-33.93a1.426 1.426 0 00-.595-.996 1.65 1.65 0 00-1.139-.284l-3.071.426c-.347.048-.644.19-.892.427a1.558 1.558 0 00-1.338-.806H9.422c-.842 0-1.536.664-1.536 1.47V36.79a1.52 1.52 0 001.536 1.516zm14.168-1.943c.05.285-.148.569-.495.616l-3.022.38c-.149 0-.297 0-.396-.095-.1-.095-.198-.19-.198-.332l-.446-2.843 4.16-.569.397 2.843zm-.545-3.79l-4.161.568-.297-2.038 4.161-.569.297 2.038zM19.577 9.21L22.6 29.54l-4.16.569-3.023-20.33 4.162-.569zm-.148-.9l-4.161.568-.298-2.037 4.162-.569.297 2.038zM14.87 2.386l3.072-.426h.099a.57.57 0 01.545.474l.446 2.89-4.162.569-.446-2.89a.538.538 0 01.446-.617zm-5.994.19c0-.285.248-.522.545-.522h3.071c.298 0 .545.237.545.522v2.89h-4.21v-2.89h.049zm0 3.838h4.21V8.5h-4.21V6.414zm0 3.033h4.21v20.567h-4.21V9.447zm0 21.515h4.21v2.085h-4.21v-2.085zm0 2.985h4.21v2.844a.538.538 0 01-.544.521H9.47a.538.538 0 01-.544-.521v-2.843h-.05z" fill="#787878" stroke="#787878" stroke-width=".4"></path>
    <path d="M31.913 15.086c-1.982 0-3.617 1.564-3.617 3.46s1.635 3.46 3.617 3.46c1.981 0 3.616-1.564 3.616-3.46s-1.635-3.46-3.616-3.46zm0 5.972c-1.437 0-2.626-1.138-2.626-2.512s1.19-2.512 2.626-2.512 2.625 1.138 2.625 2.512-1.189 2.512-2.625 2.512z" fill="#787878" stroke="#787878" stroke-width=".4"></path>
  </symbol>
  <symbol fill="none" xmlns="http://www.w3.org/2000/svg" viewBox="0 0 41 40" id="Suprise">
    <path d="M30.05.485H10.855C4.86.485 0 5.135 0 10.87v18.36c0 5.736 4.86 10.385 10.856 10.385h19.193c5.996 0 10.856-4.65 10.856-10.385V10.87c0-5.735-4.86-10.385-10.856-10.385z" fill="#FBB881"></path>
    <path d="M20.469 33.04c3.405 0 6.165-2.376 6.165-5.308 0-2.931-2.76-5.307-6.165-5.307-3.405 0-6.165 2.376-6.165 5.307 0 2.932 2.76 5.308 6.165 5.308z" fill="#333"></path>
    <path d="M17.174 16.217c.454-2.678-1.446-5.2-4.245-5.635-2.8-.435-5.437 1.383-5.891 4.06-.454 2.678 1.446 5.201 4.245 5.636 2.8.434 5.437-1.384 5.891-4.061z" fill="#fff"></path>
    <path d="M13.724 16.98a2.132 2.132 0 000-3.11 2.373 2.373 0 00-3.25 0 2.132 2.132 0 000 3.11 2.373 2.373 0 003.25 0z" fill="#333"></path>
    <path d="M32.434 18.898a4.762 4.762 0 000-6.946c-2.005-1.918-5.256-1.918-7.261 0a4.762 4.762 0 000 6.946c2.005 1.918 5.256 1.918 7.261 0z" fill="#fff"></path>
    <path d="M30.429 16.98a2.132 2.132 0 000-3.11 2.373 2.373 0 00-3.25 0 2.132 2.132 0 000 3.11 2.373 2.373 0 003.25 0z" fill="#333"></path>
  </symbol>
  <symbol fill="none" xmlns="http://www.w3.org/2000/svg" viewBox="0 0 41 40" id="Anger">
    <path d="M30.172.107h-19.44C4.805.107 0 4.704 0 10.374V28.97c0 5.67 4.805 10.267 10.732 10.267h19.44c5.928 0 10.733-4.597 10.733-10.267V10.374C40.905 4.704 36.1.107 30.172.107z" fill="#FC8379"></path>
    <path d="M26.476 28.213a.489.489 0 00.455-.076.45.45 0 00.14-.185.43.43 0 00.026-.227c-.42-2.81-3.233-4.983-6.644-4.983-3.41 0-6.224 2.17-6.643 4.978a.43.43 0 00.025.228.448.448 0 00.14.186.478.478 0 00.456.077l3.206-1.137a8.39 8.39 0 015.551 0l3.288 1.139zm-12.821-8.54c.756 0 1.368-.988 1.368-2.208 0-1.22-.612-2.208-1.368-2.208-.756 0-1.369.989-1.369 2.208 0 1.22.613 2.208 1.369 2.208zm13.691 0c.756 0 1.369-.988 1.369-2.208 0-1.22-.613-2.208-1.369-2.208s-1.369.989-1.369 2.208c0 1.22.613 2.208 1.37 2.208z" fill="#333"></path>
    <path d="M15.208 15.86c-.824-.598-2.77-1.705-5.938-1.712a.51.51 0 01-.405-.2c-.165-.236-.31-.633.247-.944a4.345 4.345 0 013.383-.203s2.023.97 2.836 2.21a.537.537 0 01.077.178l.116.471a.183.183 0 01-.006.117.193.193 0 01-.077.092.206.206 0 01-.233-.008zm10.492 0c.82-.598 2.766-1.705 5.935-1.712a.52.52 0 00.23-.052.486.486 0 00.177-.148c.163-.236.308-.633-.247-.944a4.344 4.344 0 00-3.383-.203s-2.025.97-2.839 2.21a.669.669 0 00-.076.178l-.116.471a.183.183 0 00.005.12c.015.037.042.07.077.092a.206.206 0 00.236-.011z" fill="#333"></path>
  </symbol>
  <symbol fill="none" xmlns="http://www.w3.org/2000/svg" viewBox="0 0 48 38" id="Teachers">
    <path d="M13.768 16.279a5.608 5.608 0 003.02-.874 5.253 5.253 0 002.002-2.33c.412-.95.52-1.995.311-3.003a5.13 5.13 0 00-1.485-2.661 5.512 5.512 0 00-2.781-1.424 5.66 5.66 0 00-3.139.295 5.387 5.387 0 00-2.438 1.914 5.037 5.037 0 00-.916 2.887 5.089 5.089 0 001.59 3.67 5.564 5.564 0 003.836 1.526zm0-7.97a3 3 0 011.616.466 2.81 2.81 0 011.072 1.247c.221.508.279 1.067.167 1.607a2.744 2.744 0 01-.795 1.424 2.948 2.948 0 01-1.49.76 3.027 3.027 0 01-1.679-.159 2.881 2.881 0 01-1.303-1.025 2.694 2.694 0 01-.488-1.546c.003-.735.31-1.44.852-1.96a2.978 2.978 0 012.048-.814z" fill="#787878"></path>
    <path d="M46.17 0H6.135c-.486 0-.951.184-1.295.512A1.717 1.717 0 004.3 1.75v19L.703 25.327a3.175 3.175 0 00-.682 2.339 3.235 3.235 0 001.188 2.146l3.744 3.06v2.958c.001.437.184.856.508 1.165.323.31.762.483 1.22.483h11.03a1.77 1.77 0 001.22-.483c.323-.309.506-.728.508-1.165v-6.588l.1.12a3.96 3.96 0 001.21.967 4.169 4.169 0 003.073.299c.507-.148.978-.39 1.387-.714l3.92-3.128h17.043c.486 0 .95-.186 1.294-.515.342-.33.535-.775.535-1.24V1.75a1.717 1.717 0 00-.537-1.236A1.877 1.877 0 0046.17 0zM23.59 28.033c-.148.12-.32.209-.506.264a1.527 1.527 0 01-1.126-.105 1.456 1.456 0 01-.444-.352l-2.35-2.842a1.267 1.267 0 00-.637-.41 1.318 1.318 0 00-.767.019 1.26 1.26 0 00-.615.44 1.173 1.173 0 00-.234.7v9.314H7.478v-1.165a2.97 2.97 0 001.984-.864 2.72 2.72 0 00.8-1.94 2.72 2.72 0 00-.243-1.124 2.823 2.823 0 00-.692-.939l-2.02-1.812 1.394-1.58c.107-.122.188-.262.239-.414a1.16 1.16 0 00-.081-.922 1.22 1.22 0 00-.307-.369 1.317 1.317 0 00-1.395-.151 1.257 1.257 0 00-.386.294l-1.845 2.083c-.3.333-.454.764-.43 1.204.023.439.223.853.557 1.155l2.526 2.271a.408.408 0 01.141.305.389.389 0 01-.066.22.415.415 0 01-.182.15.437.437 0 01-.454-.07L2.845 27.97a.838.838 0 01-.131-1.184l5.239-6.656c.21-.271.483-.491.798-.643.315-.15.663-.229 1.016-.227h5.3c.349 0 .693.076 1.006.224.313.147.586.362.798.627l4.643 5.746a1.31 1.31 0 001.743.242l4.548-3.17a.704.704 0 01.399-.117.726.726 0 01.408.118c.12.078.212.19.262.321.05.13.058.273.02.407a.67.67 0 01-.23.343l-5.073 4.031zm21.884-3.663H31.326c.21-.69.169-1.428-.116-2.093l4.35-8.169a1.16 1.16 0 00.076-.922 1.226 1.226 0 00-.629-.704 1.317 1.317 0 00-.965-.072 1.25 1.25 0 00-.735.601l-4.042 7.55a3.468 3.468 0 00-1.056-.164 3.24 3.24 0 00-1.89.585l-3.562 2.47-3.896-4.834A4.751 4.751 0 0017.18 17.3a4.97 4.97 0 00-2.118-.47H9.767a4.957 4.957 0 00-2.94.966V2.416h38.647V24.37z" fill="#787878"></path>
    <path d="M33.408 7.008h8.448c.335 0 .657-.127.893-.354a1.18 1.18 0 00.37-.854c0-.32-.133-.628-.37-.854a1.293 1.293 0 00-.893-.354h-8.448a1.29 1.29 0 00-.893.354 1.18 1.18 0 00-.37.854c0 .32.133.628.37.854.237.227.558.354.893.354zm-8.145 0h2.446c.335 0 .656-.127.893-.354a1.18 1.18 0 00.37-.854c0-.32-.133-.628-.37-.854a1.293 1.293 0 00-.893-.354h-2.446a1.29 1.29 0 00-.893.354A1.18 1.18 0 0024 5.8c0 .32.133.628.37.854.237.227.558.354.893.354zm9.166 1.672h-9.166c-.335 0-.656.128-.893.355a1.18 1.18 0 00-.37.854c0 .32.133.628.37.854.237.227.558.354.893.354h9.166c.335 0 .656-.127.893-.354a1.18 1.18 0 00.37-.854c0-.32-.133-.628-.37-.854a1.293 1.293 0 00-.893-.354zm7.169 0h-3.39c-.335 0-.656.128-.893.355a1.18 1.18 0 00-.37.854c0 .32.133.628.37.854.237.227.558.354.893.354h3.39c.335 0 .657-.127.894-.354.236-.226.37-.534.37-.854 0-.32-.134-.628-.37-.854a1.293 1.293 0 00-.894-.354z" fill="#787878"></path>
  </symbol>
  <symbol fill="none" xmlns="http://www.w3.org/2000/svg" viewBox="0 0 50 50" id="Add">
    <path d="M7.32 7.32c-9.76 9.758-9.76 25.602 0 35.36 9.758 9.76 25.602 9.76 35.36 0 9.76-9.758 9.76-25.602 0-35.36-9.758-9.76-25.662-9.76-35.36 0zm32.409 32.409c-8.133 8.132-21.386 8.132-29.518 0-8.133-8.133-8.133-21.386 0-29.518 8.132-8.133 21.385-8.133 29.518 0 8.132 8.132 8.132 21.385 0 29.518z" fill="#545454"></path>
    <path d="M24.97 13.102a2.031 2.031 0 00-2.048 2.049v7.83H15.09a2.031 2.031 0 00-2.048 2.05 2.03 2.03 0 002.048 2.047h7.832v7.832c0 1.144.903 2.048 2.048 2.048.542 0 1.084-.241 1.446-.603.36-.361.602-.903.602-1.445v-7.832h7.831a2.1 2.1 0 001.446-.602c.361-.361.602-.904.602-1.446a2.031 2.031 0 00-2.048-2.048h-7.831V15.15a2.031 2.031 0 00-2.048-2.049z" fill="#545454"></path>
  </symbol>
  <symbol fill="none" xmlns="http://www.w3.org/2000/svg" viewBox="0 0 51 51" id="Completed">
    <path d="M25.5 0C11.399 0 0 11.399 0 25.5S11.399 51 25.5 51 51 39.601 51 25.5 39.601 0 25.5 0zm12.339 20.212l-15.1 15.042a2.32 2.32 0 01-1.646.705c-.587 0-1.234-.236-1.645-.706l-7.462-7.403a2.34 2.34 0 010-3.349c.94-.94 2.41-.94 3.35 0l5.757 5.758L34.49 16.863c.94-.94 2.409-.94 3.349 0 .881.94.881 2.468 0 3.349z" fill="#579229"></path>
  </symbol>
  <symbol fill="none" xmlns="http://www.w3.org/2000/svg" viewBox="0 0 40 47" id="Dashboard">
    <path d="M17.5 30.573c.315 0 .619.137.85.385.232.248.375.59.4.955v13.336a1.558 1.558 0 01-.4.955 1.158 1.158 0 01-.85.384H1.25a1.158 1.158 0 01-.85-.384 1.559 1.559 0 01-.4-.955V31.913c.025-.366.168-.707.4-.955.231-.248.535-.386.85-.384H17.5zm21.25-11.646c.331 0 .65.153.884.426.234.273.366.643.366 1.03v24.75c0 .386-.132.756-.366 1.029a1.168 1.168 0 01-.884.426H22.5c-.331 0-.65-.153-.884-.426a1.586 1.586 0 01-.366-1.03v-24.75c0-.386.132-.756.366-1.03.235-.272.553-.425.884-.425h16.25zm-22.5 14.31H2.5v10.687h13.75V33.238zM37.5 21.839H23.75v21.838H37.5V21.838zM17.5 0c.331 0 .65.153.884.426.234.273.366.644.366 1.03v24.75c0 .386-.132.756-.366 1.03a1.168 1.168 0 01-.884.426H1.25c-.332 0-.65-.154-.884-.427A1.586 1.586 0 010 26.205V1.456C0 1.07.132.7.366.427.601.153.918 0 1.25 0H17.5zm-1.25 2.912H2.5V24.75h13.75V2.912zM38.75 0c.315-.001.619.136.85.384.232.249.375.59.4.955v13.336a1.559 1.559 0 01-.4.955 1.158 1.158 0 01-.85.385H22.5a1.158 1.158 0 01-.85-.385 1.559 1.559 0 01-.4-.955V1.34a1.56 1.56 0 01.4-.955c.231-.248.535-.385.85-.384h16.25zM37.5 2.664H23.75V13.35H37.5V2.664z" fill="#787878"></path>
  </symbol>
  <symbol fill="none" xmlns="http://www.w3.org/2000/svg" viewBox="0 0 41 40" id="Fear">
    <path d="M29.974.39H10.828C4.848.39 0 5.029 0 10.75v18.313c0 5.721 4.848 10.359 10.828 10.359h19.146c5.98 0 10.828-4.638 10.828-10.358V10.748C40.802 5.028 35.954.39 29.974.39z" fill="#AAA4EC"></path>
    <path d="M24.928 30.517c.267.003.532-.06.768-.182s.437-.3.584-.516a1.5 1.5 0 00.121-1.477c-.982-2.06-3.35-3.51-6.1-3.51-2.75 0-5.11 1.45-6.099 3.51a1.498 1.498 0 00.121 1.477c.147.217.348.394.584.516s.5.185.769.182h9.252zM7.395 15.37a.818.818 0 00.547.366c2.334.606 6.926-.168 7.3-3.113.06-.479-.187-1.652-.88-1.096-.694.555-1.23 1.403-1.98 1.977-.721.57-1.62.868-2.538.843-.61-.021-1.268-.155-1.863.029-.536.172-.78.642-.586.994zm26.207 0a.85.85 0 01-.248.24.9.9 0 01-.327.126c-2.45.606-7.272-.168-7.665-3.113-.065-.479.197-1.652.923-1.096.756.589 1.29 1.403 2.082 1.977.755.57 1.699.87 2.664.843.638-.021 1.33-.155 1.956.029.562.172.819.642.615.994zm-18.545 3.98c.26.091.504.22.727.383 1.133.868-.098 1.908-.89 2.418-.86.555-2.258 1.54-3.33 1.326a.599.599 0 01-.431-.258c-.405-.715.727-1.066 1.184-1.268.34-.15 1.006-.477.967-.954a.607.607 0 00-.191-.358c-.674-.67-2.116-.477-2.38-1.588a.5.5 0 01.087-.436.625.625 0 01.394-.183c.894-.155 1.778.16 2.598.498.403.162.848.262 1.265.42zm10.576 0a3.142 3.142 0 00-.782.383c-1.21.868.105 1.908.956 2.418.922.555 2.417 1.54 3.568 1.326a.668.668 0 00.46-.258c.434-.715-.777-1.066-1.269-1.268-.362-.15-1.078-.477-1.034-.954a.582.582 0 01.205-.358c.72-.67 2.265-.477 2.55-1.588a.474.474 0 00-.093-.436.704.704 0 00-.422-.183c-.961-.155-1.907.16-2.786.498-.43.162-.907.262-1.353.42z" fill="#333"></path>
  </symbol>
  <symbol fill="none" xmlns="http://www.w3.org/2000/svg" viewBox="0 0 43 38" id="Guide">
    <path clip-rule="evenodd" d="M25.18 22.089c4.94-.246 12.09-2.261 16.82-4.67v15.534c0 1.917-1.63 3.441-3.68 3.441H4.68C2.63 36.394 1 34.87 1 32.953V17.468c4.73 2.409 11.88 4.375 16.82 4.67v1.475c0 1.081.947 1.966 2.103 1.966h3.154c1.156 0 2.102-.885 2.102-1.966v-1.524zM42 10.34v4.867c-4.415 2.507-11.774 4.67-16.82 4.965v-1.475c0-1.081-.947-1.966-2.103-1.966h-3.154c-1.156 0-2.102.885-2.102 1.966v1.426C12.773 19.828 5.414 17.665 1 15.158V10.34C1 8.423 2.63 6.9 4.68 6.9h8.935V5.424C13.615 2.966 15.718 1 18.346 1h6.308c2.628 0 4.73 1.966 4.73 4.424V6.9h8.937C40.37 6.899 42 8.423 42 10.34zM27.282 5.424c0-1.376-1.156-2.458-2.628-2.458h-6.308c-1.472 0-2.628 1.082-2.628 2.458V6.9h11.564V5.424zm-4.205 13.273h-3.154v4.916h3.154v-4.916z" stroke="#787878" stroke-width="1.5"></path>
  </symbol>
  <symbol fill="none" xmlns="http://www.w3.org/2000/svg" viewBox="0 0 41 40" id="Happiness">
    <path d="M30.172 0h-19.44C4.805 0 0 4.596 0 10.267v18.596c0 5.67 4.805 10.267 10.732 10.267h19.44c5.928 0 10.733-4.597 10.733-10.267V10.267C40.905 4.597 36.1 0 30.172 0z" fill="#FFE990"></path>
    <path d="M6.294 15.55a.488.488 0 01-.032-.1c-.39-2.105 3.822-2.63 5.161-2.237a5.804 5.804 0 011.943 1.022c.213.174 1.586 1.816.6 1.837a.707.707 0 01-.4-.158c-.9-.608-1.38-1.512-2.518-1.771a3.81 3.81 0 00-1.884.056 3.68 3.68 0 00-1.603.949c-.276.285-.969 1.096-1.267.403zm27.738.001a.493.493 0 00.032-.101c.39-2.105-3.81-2.643-5.161-2.237a5.805 5.805 0 00-1.944 1.022c-.212.174-1.585 1.816-.599 1.837a.707.707 0 00.4-.158c.9-.608 1.38-1.512 2.517-1.771a3.81 3.81 0 011.888.054 3.679 3.679 0 011.607.95c.266.286.962 1.097 1.26.404zM12.22 22.897c5.053 1.651 10.927 1.562 15.97-.104a18.187 18.187 0 005.112-2.595c.476-.354 1.354-1.094 1.916-.406.32.397.052 1.055-.17 1.435-.538.92-1.48 1.566-2.35 2.18a17.414 17.414 0 01-3.7 1.96 23.151 23.151 0 01-7 1.484c-.9.059-1.806.073-2.713.047h-.077a28.63 28.63 0 01-3.834-.38 22.348 22.348 0 01-7.596-2.746c-.767-.448-1.504-.896-1.943-1.677a1.209 1.209 0 01-.153-.93c.16-.523.752-.707 1.268-.61.81.167 1.48.613 2.177.995.75.401 1.528.755 2.328 1.057.254.12.508.205.764.29z" fill="#333"></path>
  </symbol>
  <symbol fill="none" xmlns="http://www.w3.org/2000/svg" viewBox="0 0 51 51" id="High Alert">
    <path d="M51 25.5C51 11.429 39.571 0 25.5 0S0 11.429 0 25.5 11.429 51 25.5 51 51 39.571 51 25.5zM22.725 14.005a2.791 2.791 0 012.775-2.774 2.791 2.791 0 012.775 2.774v11.033a2.791 2.791 0 01-2.775 2.774 2.791 2.791 0 01-2.775-2.774V14.005zm.199 20.942A2.58 2.58 0 0125.5 32.37a2.58 2.58 0 012.576 2.577 2.58 2.58 0 01-2.576 2.576 2.58 2.58 0 01-2.576-2.576z" fill="#FC8379"></path>
  </symbol>
  <symbol fill="none" xmlns="http://www.w3.org/2000/svg" viewBox="0 0 29 29" id="Left">
    <path fill-rule="evenodd" clip-rule="evenodd" d="M18.874.972l2.532 2.532-10.37 10.37 10.37 10.37-2.532 2.532L5.972 13.874 18.874.972z" fill="#000"></path>
  </symbol>
</svg>