<svg width="25" height="18" viewBox="0 0 25 18" fill="none" xmlns="http://www.w3.org/2000/svg">
<path d="M16.5179 15.3C17.2575 15.3 17.8571 15.9044 17.8571 16.65C17.8571 17.3956 17.2575 18 16.5179 18H8.48214C7.74248 18 7.14286 17.3956 7.14286 16.65C7.14286 15.9044 7.74248 15.3 8.48214 15.3H16.5179ZM20.0893 7.65C20.829 7.65 21.4286 8.25442 21.4286 9C21.4286 9.74558 20.829 10.35 20.0893 10.35H4.91071C4.17105 10.35 3.57143 9.74558 3.57143 9C3.57143 8.25442 4.17105 7.65 4.91071 7.65H20.0893ZM23.6607 0C24.4004 0 25 0.604416 25 1.35C25 2.09558 24.4004 2.7 23.6607 2.7H1.33929C0.599619 2.7 0 2.09558 0 1.35C0 0.604416 0.599619 0 1.33929 0H23.6607Z" fill="black"/>
</svg>
