<svg width="27" height="23" viewBox="0 0 27 23" fill="none" xmlns="http://www.w3.org/2000/svg">
<path d="M9.63347 18.8094H17.3721C17.6716 18.8094 17.9532 18.7975 18.2262 18.7733L23.5767 22.4487C23.7314 22.5658 23.9199 22.6365 24.1177 22.6515C24.3156 22.6666 24.5136 22.6253 24.6863 22.5331C24.859 22.4409 24.9984 22.3019 25.0864 22.1342C25.1744 21.9665 25.2071 21.7777 25.1801 21.5924L24.3677 15.9666C25.6603 14.6778 26.5241 13.0602 26.8523 11.3136C27.1806 9.56706 26.9589 7.76807 26.2147 6.13898C25.4705 4.50989 24.2364 3.12209 22.6649 2.14708C21.0933 1.17207 19.2533 0.652579 17.3721 0.652803H9.63347C8.36864 0.652137 7.11606 0.886463 5.94731 1.34239C4.77855 1.79832 3.71653 2.46692 2.8219 3.30998C1.92728 4.15304 1.2176 5.15405 0.733409 6.25581C0.249216 7.35757 0 8.53848 0 9.73109C0 10.9237 0.249216 12.1046 0.733409 13.2064C1.2176 14.3081 1.92728 15.3091 2.8219 16.1522C3.71653 16.9953 4.77855 17.6639 5.94731 18.1198C7.11606 18.5757 8.36864 18.81 9.63347 18.8094ZM9.63347 1.78406H17.3721C19.0414 1.78378 20.6732 2.25098 22.0604 3.12642C23.4477 4.00185 24.528 5.24607 25.1642 6.70124C25.8005 8.15642 25.964 9.75698 25.6341 11.2999C25.3042 12.8429 24.4957 14.2586 23.3111 15.3677C23.2453 15.4294 23.1955 15.5046 23.1656 15.5875C23.1358 15.6704 23.1268 15.7587 23.1394 15.8455L23.9254 21.2894L18.7451 17.7302C18.6218 17.6455 18.469 17.6083 18.3176 17.6259C18.0039 17.6619 17.6881 17.6794 17.3721 17.6781H9.63347C8.52622 17.6787 7.4297 17.4736 6.40655 17.0745C5.38339 16.6754 4.45367 16.0902 3.67049 15.3521C2.88732 14.6141 2.26604 13.7378 1.84216 12.7734C1.41829 11.8089 1.20011 10.7751 1.20011 9.73107C1.20011 8.68705 1.41829 7.65326 1.84216 6.68878C2.26604 5.72429 2.88732 4.84801 3.67049 4.11C4.45367 3.37198 5.38339 2.78671 6.40655 2.38761C7.4297 1.98852 8.52622 1.78342 9.63347 1.78404V1.78406ZM6.71841 9.73005C6.71842 9.58004 6.78162 9.43617 6.89412 9.3301C7.00662 9.22403 7.1592 9.16443 7.31829 9.16442H19.6861C19.8452 9.16442 19.9978 9.22402 20.1103 9.33009C20.2227 9.43617 20.286 9.58004 20.286 9.73005C20.286 9.88006 20.2227 10.0239 20.1103 10.13C19.9978 10.2361 19.8452 10.2957 19.6861 10.2957H7.31829C7.1592 10.2957 7.00662 10.2361 6.89412 10.13C6.78162 10.0239 6.71842 9.88006 6.71841 9.73005ZM6.71841 12.841C6.71842 12.691 6.78162 12.5471 6.89412 12.4411C7.00662 12.335 7.1592 12.2754 7.31829 12.2754H14.2871C14.4462 12.2754 14.5988 12.335 14.7113 12.441C14.8238 12.5471 14.887 12.691 14.887 12.841C14.887 12.991 14.8238 13.1349 14.7113 13.241C14.5988 13.347 14.4462 13.4066 14.2871 13.4066H7.31829C7.1592 13.4066 7.00662 13.347 6.89412 13.241C6.78162 13.1349 6.71842 12.991 6.71841 12.841ZM6.71841 6.6191C6.71842 6.46909 6.78162 6.32522 6.89412 6.21915C7.00662 6.11307 7.1592 6.05348 7.31829 6.05347H19.6861C19.8452 6.05347 19.9978 6.11306 20.1103 6.21914C20.2227 6.32521 20.286 6.46908 20.286 6.6191C20.286 6.76911 20.2227 6.91298 20.1103 7.01906C19.9978 7.12513 19.8452 7.18473 19.6861 7.18473H7.31829C7.1592 7.18472 7.00662 7.12512 6.89412 7.01905C6.78162 6.91298 6.71842 6.76911 6.71841 6.6191Z" fill="#C7C7C9"/>
</svg>
