<svg width="21" height="23" viewBox="0 0 21 23" fill="none" xmlns="http://www.w3.org/2000/svg">
<path d="M13.817 19.734C13.6156 21.3785 12.1538 22.6546 10.3806 22.6546C8.60727 22.6546 7.14554 21.3785 6.94406 19.734H2.24297C1.00419 19.734 0 18.7755 0 17.5922C0 16.4105 1.00339 15.4505 2.23979 15.4505C2.35065 15.4505 2.44248 15.3626 2.44248 15.2551V10.5825C2.44248 7.25172 4.70152 4.35376 7.93807 3.3554V2.98961C7.93807 1.69963 9.03304 0.652802 10.3806 0.652802C11.7302 0.652802 12.823 1.69744 12.823 2.98961V3.35545C16.0595 4.35395 18.3186 7.25242 18.3186 10.5825V15.2551C18.3186 15.3647 18.4083 15.4505 18.5213 15.4505C19.7558 15.4505 20.7611 16.4102 20.7611 17.5922C20.7611 18.7742 19.756 19.734 18.5181 19.734H13.817ZM12.5826 19.734H8.17853C8.36996 20.7309 9.28304 21.4863 10.3806 21.4863C11.4781 21.4863 12.3911 20.7309 12.5826 19.734ZM8.70083 4.3598C5.75767 5.0841 3.66373 7.63286 3.66373 10.5825V15.2551C3.66373 16.0076 3.02529 16.6187 2.23979 16.6187C1.67793 16.6187 1.22124 17.0557 1.22124 17.5922C1.22124 18.1298 1.67805 18.5658 2.24297 18.5658H18.5181C19.082 18.5658 19.5399 18.1285 19.5399 17.5922C19.5399 17.0559 19.0819 16.6187 18.5213 16.6187C17.734 16.6187 17.0974 16.01 17.0974 15.2551V10.5825C17.0974 7.63356 15.0033 5.0842 12.0603 4.35983L11.6018 4.24699V2.98961C11.6018 2.34282 11.0559 1.82104 10.3806 1.82104C9.70735 1.82104 9.15931 2.34498 9.15931 2.98961V4.24697L8.70083 4.3598Z" fill="#C7C7C9"/>
</svg>
